<?xml version="1.0" encoding="UTF-8"?>
<svg id="Grafica_Landing" xmlns="http://www.w3.org/2000/svg" viewBox="0 0 67 100">
  <defs>
    <style>
      .cls-1 {
        fill: #fff;
      }
    </style>
  </defs>
  <g>
    <path class="cls-1" d="M2.0704,100v-12.9526H.1667v-3.0787h7.0137v3.0787h-1.9037v12.9526h-3.2063Z"/>
    <path class="cls-1" d="M7.9091,92.8132v-2.1132h4.7001v2.1132h-4.7001Z"/>
    <path class="cls-1" d="M13.8753,100v-16.0313h4.8823l1.3481,9.7736,1.339-9.7736h4.9278v16.0313h-2.933v-11.5498l-1.84,11.5498h-2.8784l-1.9493-11.5498v11.5498h-2.8966Z"/>
    <path class="cls-1" d="M27.7934,100v-16.0313h4.2356c.8866,0,1.5895.1974,2.1087.5921.5192.3948.8911.9564,1.1158,1.6851.2246.7287.337,1.5972.337,2.6051,0,.9716-.0942,1.8172-.2824,2.5368-.1883.7196-.5238,1.2768-1.0065,1.6714-.4828.3948-1.1675.5921-2.054.5921h-1.3025v6.3488h-3.1516ZM30.945,90.7729h.1822c.5951,0,.9594-.167,1.093-.501.1335-.3339.2004-.8257.2004-1.4756,0-.6071-.0653-1.0762-.1958-1.4073-.1307-.3309-.4388-.4964-.9245-.4964h-.3552v3.8803Z"/>
    <path class="cls-1" d="M36.6015,100v-16.0313h3.2063v13.2987h3.2974v2.7326h-6.5036Z"/>
    <path class="cls-1" d="M43.5788,100l1.5485-16.0313h5.4379l1.5212,16.0313h-3.0332l-.2277-2.5869h-1.931l-.2004,2.5869h-3.1152ZM47.1221,94.8536h1.4574l-.7014-8.1523h-.1457l-.6103,8.1523Z"/>
    <path class="cls-1" d="M54.2087,100v-12.9526h-1.9037v-3.0787h7.0137v3.0787h-1.9037v12.9526h-3.2063Z"/>
    <path class="cls-1" d="M60.2113,100v-16.0313h6.4125v3.097h-3.1516v3.1243h3.0241v3.015h-3.0241v3.6708h3.3611v3.1243h-6.622Z"/>
  </g>
  <polygon class="cls-1" points="52.4211 0 14.5789 40.5235 30.7896 44.9284 15.149 79.0696 45.2692 40.4429 31.0875 35.9216 52.4211 0"/>
</svg>