<?xml version="1.0" encoding="UTF-8"?>
<svg xmlns="http://www.w3.org/2000/svg" version="1.1" viewBox="0 0 130 50">
  <!-- Generator: Adobe Illustrator 28.7.5, SVG Export Plug-In . SVG Version: 1.2.0 Build 176)  -->
  <g>
    <g id="Layer_1">
      <g id="Layer_1-2" data-name="Layer_1">
        <g>
          <g>
            <path d="M40.7521,36v-17.775h-2.6125v-4.225h9.625v4.225h-2.6125v17.775h-4.4Z" style="fill: #fff;"/>
            <path d="M48.7646,26.1375v-2.9h6.45v2.9h-6.45Z" style="fill: #fff;"/>
            <path d="M56.9521,36V14h6.7l1.85,13.4125,1.8375-13.4125h6.7625v22h-4.025v-15.85l-2.525,15.85h-3.95l-2.675-15.85v15.85s-3.975,0-3.975,0Z" style="fill: #fff;"/>
            <path d="M76.0521,36V14h5.8125c1.2166,0,2.1812.2709,2.8937.8125.7125.5418,1.2229,1.3125,1.5312,2.3125.3082,1,.4625,2.1918.4625,3.575,0,1.3334-.1293,2.4938-.3875,3.4813-.2584.9875-.7188,1.7521-1.3813,2.2938s-1.6021.8125-2.8188.8125h-1.7875v8.7125h-4.325.0002ZM80.3771,23.3375h.25c.8166,0,1.3166-.2291,1.5-.6875.1832-.4582.275-1.1332.275-2.025,0-.8332-.0896-1.4769-.2687-1.9312-.1793-.4541-.6021-.6813-1.2687-.6813h-.4875v5.325h0Z" style="fill: #fff;"/>
            <path d="M88.1396,36V14h4.4v18.25h4.525v3.75h-8.925Z" style="fill: #fff;"/>
            <path d="M97.7146,36l2.125-22h7.4625l2.0875,22h-4.1625l-.3125-3.55h-2.65l-.275,3.55h-4.275ZM102.5771,28.9375h2l-.9625-11.1875h-.2l-.8375,11.1875Z" style="fill: #fff;"/>
            <path d="M112.3021,36v-17.775h-2.6125v-4.225h9.625v4.225h-2.6125v17.775s-4.4,0-4.4,0Z" style="fill: #fff;"/>
            <path d="M120.5396,36V14h8.8v4.25h-4.325v4.2875h4.15v4.1375h-4.15v5.0375h4.6125v4.2875s-9.0875,0-9.0875,0Z" style="fill: #fff;"/>
          </g>
          <polygon points="24.3026 0 .3729 25.6252 10.6239 28.4107 .7335 50 19.7801 25.5742 10.8123 22.7152 24.3026 0" style="fill: #fff;"/>
        </g>
      </g>
    </g>
  </g>
</svg>