<svg id="Layer_1" data-name="Layer 1" xmlns="http://www.w3.org/2000/svg" xmlns:xlink="http://www.w3.org/1999/xlink" viewBox="0 0 50 50"><defs><style>.cls-1{opacity:0;fill:url(#New_Gradient_Swatch_1);}.cls-2{fill:url(#New_Gradient_Swatch_1-2);}</style><linearGradient id="New_Gradient_Swatch_1" x1="-0.52" y1="50.52" x2="46.62" y2="3.38" gradientUnits="userSpaceOnUse"><stop offset="0" stop-color="#439ac5"/><stop offset="0.25" stop-color="#1f08b0"/><stop offset="0.5" stop-color="#741d7c"/><stop offset="0.75" stop-color="#e34c1d"/><stop offset="0.83" stop-color="#e58025"/><stop offset="0.91" stop-color="#e7a82c"/><stop offset="0.96" stop-color="#e9c130"/><stop offset="1" stop-color="#e9ca31"/></linearGradient><linearGradient id="New_Gradient_Swatch_1-2" x1="3.77" y1="54.81" x2="50.91" y2="7.66" xlink:href="#New_Gradient_Swatch_1"/></defs><rect class="cls-1" width="50" height="50"/><path class="cls-2" d="M6.83,40.62V39a1,1,0,0,1,.29-.69l.55-.55a1,1,0,0,1,1.66.69v2.14A1.17,1.17,0,0,1,9,41.5a1.21,1.21,0,0,1-.9.35,1.15,1.15,0,0,1-.88-.35A1.19,1.19,0,0,1,6.83,40.62Zm8.47,0V30.7a1,1,0,0,1,.28-.69l.55-.55a1,1,0,0,1,1.66.69V40.62a1.13,1.13,0,0,1-.37.88,1.24,1.24,0,0,1-.89.35,1.18,1.18,0,0,1-1.23-1.23Zm8.45,0V30.18a1,1,0,0,1,1.67-.68l.55.56a1,1,0,0,1,.28.68v9.88a1.13,1.13,0,0,1-.37.88,1.21,1.21,0,0,1-.9.35,1.15,1.15,0,0,1-.88-.35A1.19,1.19,0,0,1,23.75,40.62Zm8.47,0V30.75a1,1,0,0,1,.28-.69l.55-.55a1,1,0,0,1,1.66.69V40.62a1.13,1.13,0,0,1-.37.88,1.24,1.24,0,0,1-.89.35,1.2,1.2,0,0,1-1.23-1.23Zm8.45,0V22.36a1,1,0,0,1,.29-.68l.55-.55a1,1,0,0,1,1.66.68V40.62a1.13,1.13,0,0,1-.37.88,1.21,1.21,0,0,1-.9.35A1.15,1.15,0,0,1,41,41.5,1.19,1.19,0,0,1,40.67,40.62ZM7.2,25.64,18.64,14.23a3,3,0,0,1,2.18-.88,3.06,3.06,0,0,1,2.2.88l5.67,5.68a.64.64,0,0,0,.46.19.63.63,0,0,0,.46-.19L41,8.51a1.19,1.19,0,0,1,.87-.36,1.09,1.09,0,0,1,.87.37,1.27,1.27,0,0,1,.36.87,1.17,1.17,0,0,1-.34.86L31.35,21.68a2.93,2.93,0,0,1-2.21.92,3.06,3.06,0,0,1-2.2-.92L21.28,16a.68.68,0,0,0-.92,0L9,27.39a1.28,1.28,0,0,1-.92.35,1.15,1.15,0,0,1-.88-.39,1.19,1.19,0,0,1-.35-.85A1.08,1.08,0,0,1,7.2,25.64Z"/></svg>