<svg id="Layer_1" data-name="Layer 1" xmlns="http://www.w3.org/2000/svg" xmlns:xlink="http://www.w3.org/1999/xlink" viewBox="0 0 50 50"><defs><style>.cls-1{opacity:0;}.cls-1,.cls-2{fill:url(#New_Gradient_Swatch_1);}</style><linearGradient id="New_Gradient_Swatch_1" x1="0.48" y1="49.52" x2="44.85" y2="5.15" gradientUnits="userSpaceOnUse"><stop offset="0" stop-color="#439ac5"/><stop offset="0.25" stop-color="#1f08b0"/><stop offset="0.5" stop-color="#741d7c"/><stop offset="0.75" stop-color="#e34c1d"/><stop offset="0.83" stop-color="#e58025"/><stop offset="0.91" stop-color="#e7a82c"/><stop offset="0.96" stop-color="#e9c130"/><stop offset="1" stop-color="#e9ca31"/></linearGradient></defs><rect class="cls-1" width="50" height="50"/><path class="cls-2" d="M11.5,25.07a13.81,13.81,0,0,0,.14,2A11.68,11.68,0,0,0,12.07,29a1.49,1.49,0,0,1,0,1,1.14,1.14,0,0,1-.67.69,1.16,1.16,0,0,1-.95,0A1.09,1.09,0,0,1,9.79,30a13.94,13.94,0,0,1-.61-2.43A17.31,17.31,0,0,1,9,25.07a15.46,15.46,0,0,1,4.69-11.33A15.42,15.42,0,0,1,25,9h2.62L24.2,5.57a1.06,1.06,0,0,1-.36-.81A1.18,1.18,0,0,1,25,3.57a1.23,1.23,0,0,1,.86.33l5.28,5.29a1.58,1.58,0,0,1,.46,1.11,1.48,1.48,0,0,1-.46,1.08l-5.25,5.26a1.15,1.15,0,0,1-.86.36,1.13,1.13,0,0,1-.86-.36,1.1,1.1,0,0,1-.37-.85,1.21,1.21,0,0,1,.37-.88l3.39-3.37H25a13,13,0,0,0-9.57,4A13,13,0,0,0,11.5,25.07Zm27-.14a14.82,14.82,0,0,0-.13-2A13.78,13.78,0,0,0,38,21a1.41,1.41,0,0,1,0-1,1.28,1.28,0,0,1,.68-.71,1,1,0,0,1,.91,0,1.2,1.2,0,0,1,.61.68,16.53,16.53,0,0,1,.62,2.47,15.9,15.9,0,0,1-4.48,13.85A15.42,15.42,0,0,1,25,41H22.32l3.46,3.44a1.25,1.25,0,0,1,.33.84,1.06,1.06,0,0,1-.33.82,1.18,1.18,0,0,1-.86.37,1.11,1.11,0,0,1-.84-.37l-5.29-5.27a1.48,1.48,0,0,1-.46-1.09,1.55,1.55,0,0,1,.49-1.12l5.26-5.27a1.18,1.18,0,0,1,.83-.34,1.16,1.16,0,0,1,1.21,1.2,1.13,1.13,0,0,1-.34.83l-3.46,3.46H25a13,13,0,0,0,9.57-4A13,13,0,0,0,38.5,24.93Z"/></svg>