<svg id="Layer_1" data-name="Layer 1" xmlns="http://www.w3.org/2000/svg" xmlns:xlink="http://www.w3.org/1999/xlink" viewBox="0 0 50 50"><defs><style>.cls-1{opacity:0;fill:url(#New_Gradient_Swatch_1);}.cls-2{fill:url(#New_Gradient_Swatch_1-2);}</style><linearGradient id="New_Gradient_Swatch_1" x1="0.4" y1="49.6" x2="46.4" y2="3.6" gradientUnits="userSpaceOnUse"><stop offset="0" stop-color="#439ac5"/><stop offset="0.25" stop-color="#1f08b0"/><stop offset="0.5" stop-color="#741d7c"/><stop offset="0.75" stop-color="#e34c1d"/><stop offset="0.83" stop-color="#e58025"/><stop offset="0.91" stop-color="#e7a82c"/><stop offset="0.96" stop-color="#e9c130"/><stop offset="1" stop-color="#e9ca31"/></linearGradient><linearGradient id="New_Gradient_Swatch_1-2" x1="2.78" y1="51.99" x2="48.79" y2="5.98" xlink:href="#New_Gradient_Swatch_1"/></defs><rect class="cls-1" width="50" height="50"/><path class="cls-2" d="M23.21,38.18A14.46,14.46,0,0,0,33.82,33.8,14.46,14.46,0,0,0,38.2,23.18a14.46,14.46,0,0,0-4.38-10.61A14.46,14.46,0,0,0,23.21,8.19a14.46,14.46,0,0,0-10.62,4.38A14.46,14.46,0,0,0,8.21,23.18,14.46,14.46,0,0,0,12.59,33.8,14.46,14.46,0,0,0,23.21,38.18Zm0-7a12.43,12.43,0,0,1-6.8-2,14.21,14.21,0,0,1-4.88-5.24,1.32,1.32,0,0,1-.19-.74,2,2,0,0,1,.19-.78,14.36,14.36,0,0,1,4.89-5.2,12.41,12.41,0,0,1,6.8-2,12.21,12.21,0,0,1,6.75,2,14.41,14.41,0,0,1,4.9,5.18,1.77,1.77,0,0,1,.18.8,1.65,1.65,0,0,1-.18.77A14.54,14.54,0,0,1,30,29.19,12.31,12.31,0,0,1,23.2,31.15Zm0-2.36a10.76,10.76,0,0,0,9.46-5.6,10.86,10.86,0,0,0-4-4.09,10.92,10.92,0,0,0-11,0,10.77,10.77,0,0,0-4,4.07,10.54,10.54,0,0,0,4,4.12A10.8,10.8,0,0,0,23.21,28.79Zm0-2.78A2.8,2.8,0,0,0,26,23.18a2.81,2.81,0,0,0-4.8-2,2.67,2.67,0,0,0-.82,2A2.8,2.8,0,0,0,23.21,26Zm0,14.66a17.17,17.17,0,0,1-6.82-1.37A17.5,17.5,0,0,1,7.09,30a17.15,17.15,0,0,1-1.37-6.83A16.85,16.85,0,0,1,7.1,16.4a18.08,18.08,0,0,1,3.74-5.56,17.64,17.64,0,0,1,5.54-3.76A17.49,17.49,0,0,1,30,7.08a17.75,17.75,0,0,1,9.31,9.31,17.51,17.51,0,0,1,.24,13,17.78,17.78,0,0,1-3.14,5.24l7.52,7.55a1.1,1.1,0,0,1,.35.87,1.26,1.26,0,0,1-.38.87,1.12,1.12,0,0,1-.86.35,1.18,1.18,0,0,1-.86-.36L34.62,36.4a17.81,17.81,0,0,1-5.22,3.14A17.14,17.14,0,0,1,23.2,40.67Z"/></svg>