<svg id="Layer_1" data-name="Layer 1" xmlns="http://www.w3.org/2000/svg" xmlns:xlink="http://www.w3.org/1999/xlink" viewBox="0 0 50 50"><defs><style>.cls-1{opacity:0;fill:url(#New_Gradient_Swatch_1);}.cls-2{fill:url(#New_Gradient_Swatch_1-2);}</style><linearGradient id="New_Gradient_Swatch_1" y1="50" x2="48.68" y2="1.32" gradientUnits="userSpaceOnUse"><stop offset="0" stop-color="#439ac5"/><stop offset="0.25" stop-color="#1f08b0"/><stop offset="0.5" stop-color="#741d7c"/><stop offset="0.75" stop-color="#e34c1d"/><stop offset="0.83" stop-color="#e58025"/><stop offset="0.91" stop-color="#e7a82c"/><stop offset="0.96" stop-color="#e9c130"/><stop offset="1" stop-color="#e9ca31"/></linearGradient><linearGradient id="New_Gradient_Swatch_1-2" x1="-0.41" y1="49.51" x2="48.26" y2="0.83" xlink:href="#New_Gradient_Swatch_1"/></defs><rect class="cls-1" width="50" height="50"/><path class="cls-2" d="M10.59,8.53a27.3,27.3,0,0,0-.8,3.67A27.36,27.36,0,0,0,9.53,16a20.52,20.52,0,0,0,1,6.36,22.25,22.25,0,0,0,2.8,5.76,1.32,1.32,0,0,1,.25.78,1,1,0,0,1-.3.73.73.73,0,0,1-.68.2,1,1,0,0,1-.65-.44A24.41,24.41,0,0,1,8.78,23a22.42,22.42,0,0,1-1.11-7,27.59,27.59,0,0,1,.24-3.64,31.73,31.73,0,0,1,.67-3.58L5.22,12.07a.86.86,0,0,1-.65.29.84.84,0,0,1-.64-.29.83.83,0,0,1-.26-.65A1,1,0,0,1,4,10.75L8.59,6.14a1.48,1.48,0,0,1,1.09-.47,1.59,1.59,0,0,1,1.12.47l4.66,4.66a.86.86,0,0,1,.26.63.9.9,0,0,1-.26.64.93.93,0,0,1-1.33,0ZM33.62,44a5.33,5.33,0,0,1-2.06.32,5.09,5.09,0,0,1-2.07-.51L16.91,38a1.29,1.29,0,0,1-.66-.7,1.4,1.4,0,0,1,0-1v0A2.65,2.65,0,0,1,17.1,35a2.57,2.57,0,0,1,1.49-.55L24.42,34l-6-16.29a1.08,1.08,0,0,1,0-.93,1.31,1.31,0,0,1,.75-.63,1.14,1.14,0,0,1,.94,0,1.24,1.24,0,0,1,.67.73l6.35,17.39a1.46,1.46,0,0,1-.16,1.4,1.52,1.52,0,0,1-1.23.72l-5.57.39,10.31,4.81a2.52,2.52,0,0,0,1.09.24,3.67,3.67,0,0,0,1.14-.18l7.54-2.75a5.24,5.24,0,0,0,3.16-6.73l-3-8.27a1.17,1.17,0,0,1,0-1,1.26,1.26,0,0,1,.73-.64,1.17,1.17,0,0,1,1,0,1.31,1.31,0,0,1,.65.7l3,8.27a7.71,7.71,0,0,1-4.63,10ZM27.49,20.61a1.2,1.2,0,0,1,.93.05,1.3,1.3,0,0,1,.66.72l2.47,6.82a1.08,1.08,0,0,1,0,.93,1.22,1.22,0,0,1-.7.64,1,1,0,0,1-1,0A1.38,1.38,0,0,1,29.2,29L26.71,22.2a1.07,1.07,0,0,1,0-.94A1.32,1.32,0,0,1,27.49,20.61ZM34,20.46a1.14,1.14,0,0,1,.94,0,1.24,1.24,0,0,1,.63.7L37.37,26a1.16,1.16,0,0,1,0,1,1.29,1.29,0,0,1-.75.66,1.14,1.14,0,0,1-.94,0,1.19,1.19,0,0,1-.63-.72l-1.77-4.85a1.11,1.11,0,0,1,0-1A1.34,1.34,0,0,1,34,20.46Z"/></svg>