<svg id="Layer_1" data-name="Layer 1" xmlns="http://www.w3.org/2000/svg" xmlns:xlink="http://www.w3.org/1999/xlink" viewBox="0 0 50 50"><defs><style>.cls-1{opacity:0;fill:url(#New_Gradient_Swatch_1);}.cls-2{fill:url(#New_Gradient_Swatch_1-2);}</style><linearGradient id="New_Gradient_Swatch_1" x1="-0.13" y1="50.13" x2="45.38" y2="4.62" gradientUnits="userSpaceOnUse"><stop offset="0" stop-color="#439ac5"/><stop offset="0.25" stop-color="#1f08b0"/><stop offset="0.5" stop-color="#741d7c"/><stop offset="0.75" stop-color="#e34c1d"/><stop offset="0.83" stop-color="#e58025"/><stop offset="0.91" stop-color="#e7a82c"/><stop offset="0.96" stop-color="#e9c130"/><stop offset="1" stop-color="#e9ca31"/></linearGradient><linearGradient id="New_Gradient_Swatch_1-2" x1="-0.19" y1="50.07" x2="45.32" y2="4.56" xlink:href="#New_Gradient_Swatch_1"/></defs><rect class="cls-1" width="50" height="50"/><path class="cls-2" d="M8.29,7.79a1.19,1.19,0,0,1-.89-.35,1.21,1.21,0,0,1-.35-.89,1.25,1.25,0,0,1,.35-.89,1.2,1.2,0,0,1,.89-.36h3.33a1.25,1.25,0,0,1,1.26,1.27,1.18,1.18,0,0,1-.36.88,1.28,1.28,0,0,1-.9.34Zm1.42,28.9-1,4.77a.63.63,0,0,0,.62.77H23.77V36.69ZM11.5,16.31l2.34-2.37a1.27,1.27,0,0,1,.88-.36,1.36,1.36,0,0,1,.89.34,1.4,1.4,0,0,1,.35.93,1.23,1.23,0,0,1-.36.89l-2.37,2.34a1.16,1.16,0,0,1-.87.38,1.28,1.28,0,0,1-1.25-1.26A1.17,1.17,0,0,1,11.5,16.31ZM10.21,34.2H23.77V28.61H11.84a.6.6,0,0,0-.4.15.62.62,0,0,0-.22.37ZM25,14.06a8.31,8.31,0,0,1-6.16-2.56,8.92,8.92,0,0,1-2.62-6.22h2.5a6.37,6.37,0,0,0,1.89,4.46,6.19,6.19,0,0,0,8.79,0,6.43,6.43,0,0,0,1.9-4.46h2.49a8.91,8.91,0,0,1-2.62,6.22A8.33,8.33,0,0,1,25,14.06Zm-1.23,7.79V18.52a1.25,1.25,0,0,1,.35-.9,1.2,1.2,0,0,1,.89-.36,1.23,1.23,0,0,1,1.26,1.26v3.33a1.17,1.17,0,0,1-.37.89,1.25,1.25,0,0,1-.9.35,1.19,1.19,0,0,1-.88-.35A1.23,1.23,0,0,1,23.77,21.85Zm2.5,20.38H40.61a.63.63,0,0,0,.63-.77l-1-4.77h-14Zm0-8H39.79l-1-5.07a.57.57,0,0,0-.22-.37.6.6,0,0,0-.4-.15H26.27ZM36.81,18l-2.39-2.37a1.11,1.11,0,0,1-.36-.86,1.34,1.34,0,0,1,.37-.89,1.18,1.18,0,0,1,.85-.34,1.29,1.29,0,0,1,.86.34l2.42,2.36a1.23,1.23,0,0,1,.4.88,1.24,1.24,0,0,1-2.15.88ZM41.73,7.79H37.16V5.3h4.57A1.26,1.26,0,0,1,43,6.57a1.15,1.15,0,0,1-.37.88A1.24,1.24,0,0,1,41.73,7.79ZM6.25,41,8.72,28.62a3.18,3.18,0,0,1,1.09-1.8,3,3,0,0,1,2-.71H38.22a3,3,0,0,1,2,.71,3.2,3.2,0,0,1,1.1,1.8L43.75,41a3.06,3.06,0,0,1-.65,2.62,3,3,0,0,1-2.4,1.14H9.34a3,3,0,0,1-2.45-1.14A3.05,3.05,0,0,1,6.25,41Z"/></svg>