<svg id="Layer_1" data-name="Layer 1" xmlns="http://www.w3.org/2000/svg" xmlns:xlink="http://www.w3.org/1999/xlink" viewBox="0 0 50 50"><defs><style>.cls-1{opacity:0;fill:url(#New_Gradient_Swatch_1);}.cls-2{fill:url(#New_Gradient_Swatch_1-2);}</style><linearGradient id="New_Gradient_Swatch_1" x1="-0.44" y1="50.44" x2="45.58" y2="4.42" gradientUnits="userSpaceOnUse"><stop offset="0" stop-color="#439ac5"/><stop offset="0.25" stop-color="#1f08b0"/><stop offset="0.5" stop-color="#741d7c"/><stop offset="0.75" stop-color="#e34c1d"/><stop offset="0.83" stop-color="#e58025"/><stop offset="0.91" stop-color="#e7a82c"/><stop offset="0.96" stop-color="#e9c130"/><stop offset="1" stop-color="#e9ca31"/></linearGradient><linearGradient id="New_Gradient_Swatch_1-2" x1="-0.44" y1="50.45" x2="45.58" y2="4.43" xlink:href="#New_Gradient_Swatch_1"/></defs><rect class="cls-1" width="50" height="50"/><path class="cls-2" d="M22.82,27.76,19.05,23.9a1.31,1.31,0,0,0-.92-.39,1.2,1.2,0,0,0-.91.34,1.29,1.29,0,0,0-.44.95,1.21,1.21,0,0,0,.44.92l4.5,4.48a1.43,1.43,0,0,0,1.09.51,1.52,1.52,0,0,0,1.12-.51l8.89-8.85a1.26,1.26,0,0,0,.36-.9,1.3,1.3,0,0,0-.39-.93,1.31,1.31,0,0,0-1.77.05ZM17.8,44l-3-5-5.79-1.2a1.46,1.46,0,0,1-.93-.61,1.41,1.41,0,0,1-.28-1.1l.6-5.73L4.68,26a1.39,1.39,0,0,1-.4-1A1.48,1.48,0,0,1,4.68,24l3.76-4.33-.6-5.73a1.4,1.4,0,0,1,.28-1.09,1.58,1.58,0,0,1,.93-.64L14.84,11l3-5a1.75,1.75,0,0,1,.87-.72,1.45,1.45,0,0,1,1.12,0L25,7.62l5.22-2.35a1.58,1.58,0,0,1,2,.65l3,5.07L41,12.16a1.58,1.58,0,0,1,.93.64,1.45,1.45,0,0,1,.29,1.09l-.61,5.73L45.35,24A1.6,1.6,0,0,1,45.72,25a1.5,1.5,0,0,1-.38,1L41.56,30.4l.61,5.73A1.57,1.57,0,0,1,41,37.84L35.19,39l-3,5a1.57,1.57,0,0,1-.88.73,1.55,1.55,0,0,1-1.1,0L25,42.39l-5.21,2.35a1.52,1.52,0,0,1-1.11,0A1.63,1.63,0,0,1,17.8,44Zm1.82-2L25,39.78,30.48,42,33.71,37l5.86-1.44-.57-6L43,25l-4-4.61.57-6L33.71,13,30.42,8,25,10.23,19.52,8l-3.23,5-5.86,1.36.57,6L7,25l4,4.56-.57,6.05L16.29,37Z"/></svg>