<svg id="Layer_1" data-name="Layer 1" xmlns="http://www.w3.org/2000/svg" xmlns:xlink="http://www.w3.org/1999/xlink" viewBox="0 0 50 50"><defs><style>.cls-1{opacity:0;fill:url(#New_Gradient_Swatch_1);}.cls-2{fill:url(#New_Gradient_Swatch_1-2);}</style><linearGradient id="New_Gradient_Swatch_1" x1="-0.13" y1="50.12" x2="46.32" y2="3.68" gradientUnits="userSpaceOnUse"><stop offset="0" stop-color="#439ac5"/><stop offset="0.25" stop-color="#1f08b0"/><stop offset="0.5" stop-color="#741d7c"/><stop offset="0.75" stop-color="#e34c1d"/><stop offset="0.83" stop-color="#e58025"/><stop offset="0.91" stop-color="#e7a82c"/><stop offset="0.96" stop-color="#e9c130"/><stop offset="1" stop-color="#e9ca31"/></linearGradient><linearGradient id="New_Gradient_Swatch_1-2" x1="-0.12" y1="50.13" x2="46.32" y2="3.68" xlink:href="#New_Gradient_Swatch_1"/></defs><rect class="cls-1" width="50" height="50"/><path class="cls-2" d="M28.1,26.92a5,5,0,0,1-5-5,4.82,4.82,0,0,1,1.46-3.56,4.89,4.89,0,0,1,3.58-1.45,5,5,0,0,1,5,5,5,5,0,0,1-5,5Zm-14.62,7a3.16,3.16,0,0,1-3.13-3.14V13.05a3.14,3.14,0,0,1,3.13-3.13H42.75a3.14,3.14,0,0,1,3.13,3.13V30.74a3.16,3.16,0,0,1-3.13,3.14ZM17,31.39H39.19a4.23,4.23,0,0,1,4.2-4.23V16.64a4.22,4.22,0,0,1-4.2-4.23H17a4.23,4.23,0,0,1-4.2,4.23V27.16a4,4,0,0,1,3,1.24A4.09,4.09,0,0,1,17,31.39Zm21.45,8.69H7.25A3.14,3.14,0,0,1,4.12,37V17.31a1.22,1.22,0,0,1,.36-.87,1.23,1.23,0,0,1,.89-.36,1.19,1.19,0,0,1,.88.36,1.22,1.22,0,0,1,.36.87V37a.69.69,0,0,0,.64.64H38.49a1.25,1.25,0,0,1,.87,2.13A1.22,1.22,0,0,1,38.49,40.08Zm-25-8.69h-.64v-19h.64a.65.65,0,0,0-.45.19.61.61,0,0,0-.19.45V30.74a.62.62,0,0,0,.19.46A.65.65,0,0,0,13.48,31.39Z"/></svg>