<svg id="Layer_1" data-name="Layer 1" xmlns="http://www.w3.org/2000/svg" xmlns:xlink="http://www.w3.org/1999/xlink" viewBox="0 0 50 50"><defs><style>.cls-1{opacity:0;fill:url(#New_Gradient_Swatch_1);}.cls-2{fill:url(#New_Gradient_Swatch_1-2);}</style><linearGradient id="New_Gradient_Swatch_1" x1="0.59" y1="49.41" x2="47.02" y2="2.98" gradientUnits="userSpaceOnUse"><stop offset="0" stop-color="#439ac5"/><stop offset="0.25" stop-color="#1f08b0"/><stop offset="0.5" stop-color="#741d7c"/><stop offset="0.75" stop-color="#e34c1d"/><stop offset="0.83" stop-color="#e58025"/><stop offset="0.91" stop-color="#e7a82c"/><stop offset="0.96" stop-color="#e9c130"/><stop offset="1" stop-color="#e9ca31"/></linearGradient><linearGradient id="New_Gradient_Swatch_1-2" x1="-2.48" y1="46.35" x2="43.95" y2="-0.08" xlink:href="#New_Gradient_Swatch_1"/></defs><rect class="cls-1" width="50" height="50"/><path class="cls-2" d="M25,42.12a3.27,3.27,0,0,1-1.3-.28A3.14,3.14,0,0,1,22.61,41L6.17,21.29a3.13,3.13,0,0,1-.54-.93,2.81,2.81,0,0,1-.19-1.06,2.42,2.42,0,0,1,.1-.7,3.57,3.57,0,0,1,.28-.72L9.9,9.63A3,3,0,0,1,11,8.36a3,3,0,0,1,1.68-.48H37.31A3,3,0,0,1,39,8.36a3.14,3.14,0,0,1,1.15,1.27l4.12,8.26a6.51,6.51,0,0,1,.23.71,2.42,2.42,0,0,1,.1.7,2.81,2.81,0,0,1-.19,1.06,3.13,3.13,0,0,1-.54.93L27.43,41a3.37,3.37,0,0,1-1.13.84A3.31,3.31,0,0,1,25,42.12ZM18.68,18.55H31.32l-4.08-8.17H22.78Zm5.09,20V21.05H9.25Zm2.49,0L40.79,21.05H26.26Zm7.86-20h7.57l-3.91-7.81a.55.55,0,0,0-.24-.26.59.59,0,0,0-.34-.1H30Zm-25.79,0h7.59L20,10.38H12.82a.64.64,0,0,0-.35.1.58.58,0,0,0-.23.26Z"/></svg>