<?xml version="1.0" encoding="UTF-8"?>
<svg id="Grafica_Landing" data-name="Grafica Landing" xmlns="http://www.w3.org/2000/svg" viewBox="0 0 30 30">
  <g id="inner">
    <path d="M3.3741,10.968h4.9868v16.032H3.3741V10.968Z" style="fill: #100458;"/>
    <path d="M8.758,5.8897c0,1.5969-1.2943,2.8897-2.8897,2.8897s-2.8897-1.2943-2.8897-2.8897c0-1.5969,1.2943-2.8897,2.8897-2.8897s2.8897,1.2943,2.8897,2.8897Z" style="fill: #100458;"/>
    <path d="M27.0214,27h-4.9824v-7.7968c0-1.8581-.0325-4.2489-2.5901-4.2489-2.5916,0-2.9856,2.0263-2.9856,4.1161v7.9297h-4.9765V10.968h4.7743v2.1931h.0694c.6641-1.2604,2.289-2.5901,4.7138-2.5901,5.0444,0,5.9771,3.3162,5.9771,7.6345v8.7945Z" style="fill: #100458;"/>
  </g>
</svg>